<svg xml:space="preserve" width="682.667" height="682.667" xmlns="http://www.w3.org/2000/svg"><defs><clipPath clipPathUnits="userSpaceOnUse" id="a"><path d="M0 512h512V0H0Z"/></clipPath></defs><g clip-path="url(#a)" transform="matrix(1.33333 0 0 -1.33333 0 682.667)"><path d="m0 0-44.57 46.659a20.86 20.86 0 0 1-22.995 4.891c-49.029-20.071-212.785-98.175-152.72-225.411" style="fill:none;stroke:#000;stroke-width:15;stroke-linecap:round;stroke-linejoin:round;stroke-miterlimit:10;stroke-dasharray:none;stroke-opacity:1" transform="translate(260.592 451.392)"/><path d="M0 0c13.645 2.928 24.392 7.784 32.846 13.779" style="fill:none;stroke:#000;stroke-width:15;stroke-linecap:round;stroke-linejoin:round;stroke-miterlimit:10;stroke-dasharray:none;stroke-opacity:1" transform="translate(218.368 99.195)"/><path d="M0 0c7.917 17.146 8.15 34.911 7.522 44.346-.213 3.196-3.455 5.221-6.458 4.105-17.282-6.423-36.773 1.78-60.003-16.349-6.456-5.04-12.416-8.31-17.726-10.383" style="fill:none;stroke:#000;stroke-width:15;stroke-linecap:round;stroke-linejoin:round;stroke-miterlimit:10;stroke-dasharray:none;stroke-opacity:1" transform="translate(273.795 140.237)"/><path d="M0 0c16.849-24.825 9.711-40.841 11.085-56.622.746-8.56 5.374-16.907 9.245-22.533 2.303-3.348.063-7.879-3.993-8.123-71.138-4.279-112.902 85.6-122.232 108.136" style="fill:none;stroke:#000;stroke-width:15;stroke-linecap:round;stroke-linejoin:round;stroke-miterlimit:10;stroke-dasharray:none;stroke-opacity:1" transform="translate(216.155 94.926)"/><path d="M0 0c-122.331 58.571-328.621-17.548-328.132-172.002.06-18.852 2.295-35.703 6.187-50.787" style="fill:none;stroke:#000;stroke-width:15;stroke-linecap:round;stroke-linejoin:round;stroke-miterlimit:10;stroke-dasharray:none;stroke-opacity:1" transform="translate(368.445 430.902)"/><path d="M0 0c25.675 48.212 90.304 40.754 90.304 40.754 65.806-74.703 178.224-20.148 202.35-7.129a9.993 9.993 0 0 1 5.232 8.037c1.586 21.127.988 99.584-85.534 159.786" style="fill:none;stroke:#000;stroke-width:15;stroke-linecap:round;stroke-linejoin:round;stroke-miterlimit:10;stroke-dasharray:none;stroke-opacity:1" transform="translate(186.538 211.358)"/><path d="M0 0c30.398-59.965 90.821-81.958 125.08-89.805 14.381-3.294 29.14 3.697 35.697 16.913 2.84 5.723.811 12.651-4.655 15.955-5.877 3.553-13.474 8.958-20.301 16.339" style="fill:none;stroke:#000;stroke-width:15;stroke-linecap:round;stroke-linejoin:round;stroke-miterlimit:10;stroke-dasharray:none;stroke-opacity:1" transform="translate(58.885 175.036)"/><path d="M0 0s-32.427 57.37 12.165 104.229" style="fill:none;stroke:#000;stroke-width:15;stroke-linecap:round;stroke-linejoin:round;stroke-miterlimit:10;stroke-dasharray:none;stroke-opacity:1" transform="translate(276.841 252.112)"/><path d="M0 0c0-6.481 5.359-11.688 11.837-11.476C43.118-10.446 88.8-5.158 88.8 43.251c0 48.438-45.684 53.704-76.965 54.728C5.357 98.19 0 92.984 0 86.503Z" style="fill:none;stroke:#000;stroke-width:15;stroke-linecap:round;stroke-linejoin:round;stroke-miterlimit:10;stroke-dasharray:none;stroke-opacity:1" transform="translate(179.02 283.137)"/><path d="M0 0h-24.771" style="fill:none;stroke:#000;stroke-width:15;stroke-linecap:round;stroke-linejoin:round;stroke-miterlimit:10;stroke-dasharray:none;stroke-opacity:1" transform="translate(206.866 342.818)"/><path d="M0 0h-46.576" style="fill:none;stroke:#000;stroke-width:15;stroke-linecap:round;stroke-linejoin:round;stroke-miterlimit:10;stroke-dasharray:none;stroke-opacity:1" transform="translate(228.67 316.746)"/><path d="M0 0s-13.82-61.471 27.856-89.184l8.302 1.788c7.425 1.598 11.658 9.455 8.9 16.531-4.642 11.906-9.835 30.165-7.25 47.879.878 6.011-2.655 11.789-8.444 13.633zM0 0s2.016 10.036 9.153 20.071" style="fill:none;stroke:#000;stroke-width:15;stroke-linecap:round;stroke-linejoin:round;stroke-miterlimit:10;stroke-dasharray:none;stroke-opacity:1" transform="translate(154.238 221.695)"/><path d="M0 0c0-11.03-8.942-19.973-19.973-19.973-11.03 0-19.972 8.943-19.972 19.973s8.942 19.973 19.972 19.973C-8.942 19.973 0 11.03 0 0Z" style="fill:none;stroke:#000;stroke-width:15;stroke-linecap:round;stroke-linejoin:round;stroke-miterlimit:10;stroke-dasharray:none;stroke-opacity:1" transform="translate(409.801 342.861)"/><path d="m0 0 23.288-19.566" style="fill:none;stroke:#000;stroke-width:15;stroke-linecap:round;stroke-linejoin:round;stroke-miterlimit:10;stroke-dasharray:none;stroke-opacity:1" transform="translate(182.095 461.175)"/><path d="m0 0 7.37-7.105" style="fill:none;stroke:#000;stroke-width:15;stroke-linecap:round;stroke-linejoin:round;stroke-miterlimit:10;stroke-dasharray:none;stroke-opacity:1" transform="translate(163.392 441.608)"/></g></svg>